G04 MADE WITH FRITZING*
G04 WWW.FRITZING.ORG*
G04 DOUBLE SIDED*
G04 HOLES PLATED*
G04 CONTOUR ON CENTER OF CONTOUR VECTOR*
%ASAXBY*%
%FSLAX23Y23*%
%MOIN*%
%OFA0B0*%
%SFA1.0B1.0*%
%ADD10C,0.074472*%
%ADD11C,0.078000*%
%ADD12C,0.075000*%
%ADD13R,0.074108X0.074472*%
%ADD14R,0.078000X0.078000*%
%ADD15R,0.075000X0.075000*%
%ADD16C,0.024000*%
%LNCOPPER1*%
G90*
G70*
G54D10*
X244Y442D03*
X144Y442D03*
X244Y341D03*
X144Y341D03*
X244Y240D03*
X144Y240D03*
X244Y140D03*
X144Y140D03*
X244Y442D03*
X144Y442D03*
X244Y341D03*
X144Y341D03*
X244Y240D03*
X144Y240D03*
X244Y140D03*
X144Y140D03*
G54D11*
X1444Y440D03*
X1444Y340D03*
G54D12*
X544Y440D03*
X844Y440D03*
X544Y340D03*
X844Y340D03*
X544Y240D03*
X844Y240D03*
X544Y140D03*
X844Y140D03*
G54D13*
X244Y442D03*
X244Y442D03*
X244Y140D03*
G54D14*
X1444Y440D03*
G54D15*
X544Y440D03*
G54D16*
X516Y240D02*
X276Y240D01*
D02*
X270Y359D02*
X324Y398D01*
X324Y398D02*
X540Y398D01*
X540Y398D02*
X541Y412D01*
D02*
X267Y464D02*
X344Y540D01*
D02*
X344Y540D02*
X644Y540D01*
D02*
X644Y540D02*
X644Y239D01*
D02*
X644Y239D02*
X565Y160D01*
D02*
X1423Y462D02*
X1345Y540D01*
D02*
X1345Y540D02*
X644Y540D01*
D02*
X824Y420D02*
X744Y341D01*
D02*
X744Y341D02*
X744Y140D01*
D02*
X744Y140D02*
X644Y40D01*
D02*
X644Y40D02*
X244Y40D01*
D02*
X244Y40D02*
X167Y118D01*
G04 End of Copper1*
M02*